# xmcd CD database file
#
# Track frame offsets:
#	150
#	18410
#	34720
#	56043
#
# Disc length: 990 seconds
#
# Revision: 2
# Processed by: cddbd v1.5.2PL0 Copyright (c) Steve Scherf et al.
# Submitted via: CDex 1.70beta2
#
DISCID=2b03dc04
DTITLE=HIGH and MIGHTY COLOR - OVER
DYEAR=2005
DGENRE=J-Pop
TTITLE0=OVER
TTITLE1=change
TTITLE2=インソムニア
TTITLE3=OVER(Instrumental)
EXTD=YEAR: 2005
EXTT0=
EXTT1=
EXTT2=
EXTT3=
PLAYORDER=
